<svg width="18" height="18" viewBox="0 0 18 18" fill="none" xmlns="http://www.w3.org/2000/svg">
<path fill-rule="evenodd" clip-rule="evenodd" d="M14.0404 3.6001H3.96043C2.56867 3.6001 1.44043 4.72834 1.44043 6.1201V6.4801H16.5604V6.1201C16.5604 4.72834 15.4322 3.6001 14.0404 3.6001ZM1.44043 12.6001V9.3601H16.5604V12.6001C16.5604 13.9919 15.4322 15.1201 14.0404 15.1201H3.96043C2.56867 15.1201 1.44043 13.9919 1.44043 12.6001ZM14.0404 12.9601H11.1604C10.9616 12.9601 10.8004 12.7989 10.8004 12.6001C10.8004 12.4013 10.9616 12.2401 11.1604 12.2401H14.0404C14.2393 12.2401 14.4004 12.4013 14.4004 12.6001C14.4004 12.7989 14.2393 12.9601 14.0404 12.9601ZM1.44043 8.6401V7.2001H16.5604V8.6401H1.44043Z" fill="white"/>
</svg>
