<svg width="18" height="18" viewBox="0 0 18 18" fill="none" xmlns="http://www.w3.org/2000/svg">
<path fill-rule="evenodd" clip-rule="evenodd" d="M8.63961 8.6401V4.1401C8.63961 3.84186 8.88138 3.6001 9.17961 3.6001C9.47784 3.6001 9.71961 3.84186 9.71961 4.1401V8.6401H14.2196C14.5178 8.6401 14.7596 8.88186 14.7596 9.1801C14.7596 9.47833 14.5178 9.7201 14.2196 9.7201H9.71961V14.2201C9.71961 14.5183 9.47784 14.7601 9.17961 14.7601C8.88138 14.7601 8.63961 14.5183 8.63961 14.2201V9.7201H4.13961C3.84138 9.7201 3.59961 9.47833 3.59961 9.1801C3.59961 8.88186 3.84138 8.6401 4.13961 8.6401H8.63961Z" fill="#919EAB"/>
</svg>
