<svg width="38" height="38" viewBox="0 0 38 38" fill="none" xmlns="http://www.w3.org/2000/svg">
<rect opacity="0.1" width="38" height="38" rx="4" fill="#DE3618"/>
<path fill-rule="evenodd" clip-rule="evenodd" d="M15.8238 12.7598L16.6511 11.1052C16.7324 10.9426 16.8987 10.8398 17.0805 10.8398H20.9205C21.1023 10.8398 21.2685 10.9426 21.3498 11.1052L22.1771 12.7598L25.3105 12.7598L26.6798 12.7598C26.9449 12.7598 27.1598 12.9747 27.1598 13.2398C27.1598 13.5049 26.9449 13.7198 26.6798 13.7198H25.2419L24.4411 24.9308C24.3514 26.1868 23.3064 27.1598 22.0472 27.1598H16.0145C14.7547 27.1598 13.7093 26.1858 13.6204 24.9291L12.8277 13.7198H11.3198C11.0547 13.7198 10.8398 13.5049 10.8398 13.2398C10.8398 12.9747 11.0547 12.7598 11.3198 12.7598L12.7598 12.7598L15.8238 12.7598ZM16.8971 12.7598H21.1038L20.6238 11.7998H17.3771L16.8971 12.7598ZM21.8815 17.04L21.4015 22.8C21.3795 23.0642 21.5758 23.2962 21.84 23.3182C22.1042 23.3402 22.3362 23.1439 22.3582 22.8797L22.8382 17.1197C22.8602 16.8556 22.6639 16.6235 22.3997 16.6015C22.1356 16.5795 21.9035 16.7758 21.8815 17.04ZM16.08 16.6015C16.3442 16.5795 16.5762 16.7758 16.5982 17.04L17.0782 22.8C17.1002 23.0642 16.9039 23.2962 16.6397 23.3182C16.3756 23.3402 16.1435 23.1439 16.1215 22.8797L15.6415 17.1197C15.6195 16.8556 15.8158 16.6235 16.08 16.6015ZM18.5198 17.0798V22.8398C18.5198 23.1049 18.7347 23.3198 18.9998 23.3198C19.2649 23.3198 19.4798 23.1049 19.4798 22.8398V17.0798C19.4798 16.8147 19.2649 16.5998 18.9998 16.5998C18.7347 16.5998 18.5198 16.8147 18.5198 17.0798Z" fill="#DE3618"/>
</svg>
